<?xml version="1.0" encoding="UTF-8"?>
<svg width="87px" height="32px" viewBox="0 0 87 32" version="1.1" xmlns="http://www.w3.org/2000/svg" xmlns:xlink="http://www.w3.org/1999/xlink">
    <!-- Generator: sketchtool 57 (101010) - https://sketch.com -->
    <title>2CEA421C-3016-479F-9F53-7FF47E762BA8</title>
    <desc>Created with sketchtool.</desc>
    <g id="web" stroke="none" stroke-width="1" fill="none" fill-rule="evenodd">
        <g id="3-mobilenumber" transform="translate(-92.000000, -28.000000)" fill="#004D9F">
            <g id="tim/blue" transform="translate(92.000000, 28.000000)">
                <g id="Group-Copy">
                    <path d="M8.61750551,3.12195122 L8.61750551,8.71629095 L12.1026857,8.71629095 L12.1026857,13.0436659 L8.61750551,13.0436659 L8.61750551,24.6752054 C8.61750551,25.5614756 8.78319318,26.1946829 9.11556663,26.5748273 C9.4471915,26.9546967 9.89409905,27.1444938 10.4557902,27.1444938 C10.7497361,27.1444938 11.001761,27.1271645 11.212364,27.0916807 C11.4227175,27.056747 11.6687537,26.9967821 11.9494746,26.9126112 L12.4285714,31.3667927 C11.8663812,31.5777701 11.317416,31.7362095 10.7811769,31.8418357 C10.2449377,31.9471869 9.66403274,32 9.03871151,32 C7.11084565,32 5.62689298,31.416305 4.58660399,30.2475397 C3.54581593,29.0798746 3.0257962,27.2292149 3.0257962,24.6958355 L3.0257962,13.0436659 L0,13.0436659 L0,8.71629095 L3.0257962,8.71629095 L3.0257962,3.12195122 L8.61750551,3.12195122" id="Fill-30"></path>
                    <path d="M16.5714291,32.0000007 L22.0089291,32.0000007 L22.0089291,9.80536112 L16.5714291,9.80536112 L16.5714291,32.0000007 Z M16.5714291,4.49238624 L22.0089291,4.49238624 L22.0089291,0 L16.5714291,0 L16.5714291,4.49238624 Z" id="Fill-32"></path>
                    <path d="M34.1483942,9.22170081 C34.1483942,9.80420504 34.2954477,10.4033901 34.5900906,11.0200502 C34.8847334,11.6364456 35.3264299,12.3171813 35.9162513,13.0619924 L37.6838405,11.9239909 C38.4512512,11.4365408 38.969019,10.9355871 39.2358047,10.4203357 C39.5036619,9.90587851 39.636519,9.34349715 39.636519,8.7339859 C39.636519,8.05669234 39.3866083,7.45380045 38.8870547,6.92531025 C38.3864298,6.39734959 37.7320548,6.13336926 36.9231262,6.13336926 C36.0319655,6.13336926 35.3470549,6.42779867 34.8675906,7.01718705 C34.3878585,7.60631065 34.1483942,8.34106031 34.1483942,9.22170081 Z M36.2451798,27.4278713 C36.9710727,27.4278713 37.6972334,27.3367888 38.4239298,27.1543591 C39.1500906,26.9719294 39.8494656,26.6984172 40.5207156,26.3335577 L34.3538404,19.2799608 L33.9630369,19.5434116 C33.2644654,20.1918447 32.7879475,20.8238618 32.5348225,21.4384038 C32.2806261,22.0534753 32.1541975,22.6714594 32.1541975,23.2931503 C32.1541975,24.4957568 32.5310725,25.4854844 33.2848226,26.2623333 C34.0385726,27.0397117 35.0250905,27.4278713 36.2451798,27.4278713 Z M26.1517867,23.6079672 C26.1517867,22.0097873 26.5969653,20.6308409 27.4878581,19.4729813 C28.378751,18.3145922 29.7354474,17.1056311 31.5579474,15.8458333 C30.6260724,14.5998037 29.9307153,13.4618022 29.4716081,12.4318288 C29.0122331,11.4031792 28.7826796,10.3528182 28.7826796,9.28286378 C28.7826796,6.93934327 29.5227688,5.06606255 31.0032153,3.6643455 C32.4828581,2.26236368 34.463126,1.56097561 36.943751,1.56097561 C39.1227688,1.56097561 40.8941081,2.2287373 42.257501,3.56293681 C43.6208938,4.89687154 44.3033938,6.51252651 44.3033938,8.4091074 C44.3033938,9.73668754 43.9669653,10.9488259 43.2954474,12.0460521 C42.6241974,13.1435431 41.7059831,14.1052046 40.5416081,14.9315664 L38.6296438,16.27265 L44.3033938,22.8154966 C44.7965188,22.0029032 45.1803581,21.1219979 45.4546438,20.1738398 C45.728126,19.2259466 45.8658046,18.2232449 45.8658046,17.166794 L50.3467867,17.166794 C50.3467867,19.0358384 50.1129474,20.7563441 49.6474117,22.3275169 C49.1816081,23.8992193 48.4688403,25.2945818 47.5099117,26.5136043 L51.7857153,31.4715098 L51.7441974,31.5731832 L45.0841974,31.5731832 L43.5011617,29.7647723 C42.3367867,30.5098482 41.1373224,31.0685227 39.904376,31.4413255 C38.6711617,31.8135986 37.3482153,32 35.936876,32 C32.9486617,32 30.5714296,31.2247398 28.8035724,29.6734251 C27.0357153,28.1226399 26.1517867,26.1005558 26.1517867,23.6079672 L26.1517867,23.6079672 Z" id="Fill-33"></path>
                    <path d="M61.3674249,9.776678 L61.6088321,12.7134699 C62.3037604,11.6455942 63.1773247,10.8210015 64.2279559,10.2386212 C65.2783255,9.65704381 66.492423,9.36585366 67.8707715,9.36585366 C69.2627205,9.36585366 70.4530173,9.68113123 71.4434928,10.3103482 C72.4339683,10.9406357 73.1835597,11.8920888 73.691744,13.1655105 C74.3610408,11.973986 75.2298973,11.0431411 76.3014522,10.3719049 C77.3711762,9.70120408 78.6297365,9.36585366 80.0750409,9.36585366 C82.2155351,9.36585366 83.9048621,10.1224663 85.1430219,11.635424 C86.380397,13.148114 87,15.4524772 87,18.5466402 L87,32 L81.1384878,32 L81.1384878,18.4952538 C81.1384878,16.8069932 80.8704029,15.6339358 80.3355409,14.9752787 C79.8006789,14.3168892 79.0045323,13.9871591 77.947624,13.9871591 C77.1172148,13.9871591 76.3982243,14.1755763 75.7896062,14.5532135 C75.1802035,14.9305831 74.6950353,15.4556889 74.3341015,16.1279956 C74.3341015,16.3889426 74.3406402,16.6116175 74.3545021,16.7973582 C74.3673179,16.9822961 74.3738566,17.1712485 74.3738566,17.3634126 L74.3738566,32 L68.5335296,32 L68.5335296,18.4952538 C68.5335296,16.8484771 68.2657063,15.6850547 67.7308443,15.006057 C67.1949361,14.3267918 66.3922508,13.9871591 65.3214806,13.9871591 C64.5326572,13.9871591 63.8392982,14.1415863 63.2445421,14.4507082 C62.6490014,14.7590272 62.1572945,15.1947418 61.7688984,15.7575846 L61.7688984,32 L55.9285714,32 L55.9285714,9.776678 L61.3674249,9.776678" id="Fill-34"></path>
                </g>
            </g>
        </g>
    </g>
</svg>