<?xml version="1.0" encoding="UTF-8"?>
<svg width="46px" height="32px" viewBox="0 0 46 32" version="1.1" xmlns="http://www.w3.org/2000/svg" xmlns:xlink="http://www.w3.org/1999/xlink">
    <!-- Generator: sketchtool 57.1 (101010) - https://sketch.com -->
    <title>45E98CDE-BBC8-4DAF-B378-DEA8C1D3AE79</title>
    <desc>Created with sketchtool.</desc>
    <g id="web" stroke="none" stroke-width="1" fill="none" fill-rule="evenodd">
        <g id="12-download" transform="translate(-697.000000, -400.000000)" fill-rule="nonzero">
            <g id="Group-3" transform="translate(644.000000, 344.000000)">
                <g id="Group-2" transform="translate(12.000000, 56.000000)">
                    <g id="cloud-download-95" transform="translate(41.000000, 0.000000)">
                        <path d="M37.86328,14.04102 C36.89014,6.09766 30.08936,0 22,0 C13.69971,0 6.84326,6.31836 6.08789,14.51074 C2.46875,15.74609 0,19.13867 0,23 C0,27.96289 4.0376,32 9,32 L37,32 C41.9624,32 46,27.96289 46,23 C46,18.32812 42.42236,14.47656 37.86328,14.04102 Z" id="Path" fill="#0EC8C7"></path>
                        <path d="M28.29297,19.29297 L24.000005,23.58594 L24.000005,10 C24.000005,9.44727 23.55225,9 23.000005,9 C22.44775,9 22.000005,9.44727 22.000005,10 L22.000005,23.58594 L17.70703,19.29297 C17.31641,18.90235 16.68359,18.90235 16.29297,19.29297 C15.90235,19.68359 15.90235,20.31641 16.29297,20.70703 L22.2923,26.70636 C22.38465,26.79889 22.49536,26.87213 22.61798,26.92291 C22.74017,26.97345 22.86981,27 23.000005,27 C23.13019,27 23.25983,26.97345 23.38202,26.92291 C23.50464,26.87213 23.61536,26.79889 23.7077,26.70636 L29.70703,20.70703 C30.09765,20.31641 30.09765,19.68359 29.70703,19.29297 C29.31641,18.90235 28.68359,18.90234 28.29297,19.29297 Z" id="Path" fill="#FFFFFF"></path>
                    </g>
                </g>
            </g>
        </g>
    </g>
</svg>