<?xml version="1.0" encoding="UTF-8"?>
<svg width="168px" height="168px" viewBox="0 0 168 168" version="1.1" xmlns="http://www.w3.org/2000/svg" xmlns:xlink="http://www.w3.org/1999/xlink">
    <!-- Generator: sketchtool 57.1 (101010) - https://sketch.com -->
    <title>C554EA13-509B-464D-8932-C0E803478249</title>
    <desc>Created with sketchtool.</desc>
    <defs>
        <circle id="path-1" cx="80" cy="80" r="80"></circle>
        <filter x="-4.4%" y="-3.1%" width="108.8%" height="108.8%" filterUnits="objectBoundingBox" id="filter-2">
            <feOffset dx="0" dy="2" in="SourceAlpha" result="shadowOffsetOuter1"></feOffset>
            <feGaussianBlur stdDeviation="2" in="shadowOffsetOuter1" result="shadowBlurOuter1"></feGaussianBlur>
            <feColorMatrix values="0 0 0 0 0   0 0 0 0 0   0 0 0 0 0  0 0 0 0.1 0" type="matrix" in="shadowBlurOuter1"></feColorMatrix>
        </filter>
    </defs>
    <g id="web" stroke="none" stroke-width="1" fill="none" fill-rule="evenodd">
        <g id="5-cardfront" transform="translate(-315.000000, -134.000000)">
            <g id="Group-2" transform="translate(319.000000, 136.000000)">
                <g id="Picto_Ident">
                    <g id="Combined-Shape" fill-rule="nonzero">
                        <use fill="black" fill-opacity="1" filter="url(#filter-2)" xlink:href="#path-1"></use>
                        <use fill="#FFFFFF" xlink:href="#path-1"></use>
                    </g>
                    <g id="Group-5" transform="translate(39.000000, 52.000000)">
                        <g id="noun_plastic-card_93878">
                            <g id="Group">
                                <rect id="Rectangle" fill="#0EC8C7" fill-rule="nonzero" opacity="0.2" x="2.00716846" y="3.01075269" width="80.2867384" height="52.1863799" rx="3.01075269"></rect>
                                <path d="M3.01075269,2.00716846 C2.45648842,2.00716846 2.00716846,2.45648842 2.00716846,3.01075269 L2.00716846,49.1756272 C2.00716846,49.7298915 2.45648842,50.1792115 3.01075269,50.1792115 L77.2759857,50.1792115 C77.8302499,50.1792115 78.2795699,49.7298915 78.2795699,49.1756272 L78.2795699,3.01075269 C78.2795699,2.45648842 77.8302499,2.00716846 77.2759857,2.00716846 L3.01075269,2.00716846 Z M3.01075269,0 L77.2759857,0 C78.9387785,0 80.2867384,1.34795989 80.2867384,3.01075269 L80.2867384,49.1756272 C80.2867384,50.83842 78.9387785,52.1863799 77.2759857,52.1863799 L3.01075269,52.1863799 C1.34795989,52.1863799 0,50.83842 0,49.1756272 L0,3.01075269 C0,1.34795989 1.34795989,0 3.01075269,0 Z" id="Rectangle" fill="#002650" fill-rule="nonzero"></path>
                                <path d="M67.4408602,7.02508961 L12.6451613,7.02508961 C12.344086,7.02508961 12.0430108,7.52688172 12.0430108,8.02867384 C12.0430108,8.53046595 12.344086,9.03225806 12.6451613,9.03225806 L67.4408602,9.03225806 C67.7419355,9.03225806 68.0430108,8.53046595 68.0430108,8.02867384 C68.0430108,7.52688172 67.8422939,7.02508961 67.4408602,7.02508961 Z" id="Path" fill="#002650"></path>
                                <path d="M54.09319,13.046595 L12.6451613,13.046595 C12.344086,13.046595 12.0430108,13.5483871 12.0430108,14.0501792 C12.0430108,14.5519713 12.344086,15.0537634 12.6451613,15.0537634 L54.09319,15.0537634 C54.3942652,15.0537634 54.6953405,14.5519713 54.6953405,14.0501792 C54.6953405,13.5483871 54.3942652,13.046595 54.09319,13.046595 Z" id="Path" fill="#002650"></path>
                                <path d="M67.8470167,22.078853 L40.5400801,22.078853 C40.3417246,22.078853 40.1433692,22.5806452 40.1433692,23.0824373 C40.1433692,23.5842294 40.3417246,24.0860215 40.5400801,24.0860215 L67.8470167,24.0860215 C68.0453721,24.0860215 68.2437276,23.5842294 68.2437276,23.0824373 C68.2437276,22.5806452 68.0453721,22.078853 67.8470167,22.078853 Z" id="Path" fill="#002650"></path>
                                <path d="M59.9316888,27.0967742 L40.4267341,27.0967742 C40.2850517,27.0967742 40.1433692,27.5985663 40.1433692,28.1003584 C40.1433692,28.6021505 40.2850517,29.1039427 40.4267341,29.1039427 L59.9316888,29.1039427 C60.0733713,29.1039427 60.2150538,28.6021505 60.2150538,28.1003584 C60.2150538,27.5985663 60.0733713,27.0967742 59.9316888,27.0967742 Z" id="Path" fill="#002650"></path>
                                <path d="M63.8893527,32.1146953 L40.4834071,32.1146953 C40.3133882,32.1146953 40.1433692,32.6164875 40.1433692,33.1182796 C40.1433692,33.6200717 40.3133882,34.1218638 40.4834071,34.1218638 L63.8893527,34.1218638 C64.0593717,34.1218638 64.2293907,33.6200717 64.2293907,33.1182796 C64.2293907,32.6164875 64.0593717,32.1146953 63.8893527,32.1146953 Z" id="Path" fill="#002650"></path>
                                <path d="M59.9316888,37.1326165 L40.4267341,37.1326165 C40.2850517,37.1326165 40.1433692,37.6344086 40.1433692,38.1362007 C40.1433692,38.6379928 40.2850517,39.1397849 40.4267341,39.1397849 L59.9316888,39.1397849 C60.0733713,39.1397849 60.2150538,38.6379928 60.2150538,38.1362007 C60.2150538,37.6344086 60.0733713,37.1326165 59.9316888,37.1326165 Z" id="Path" fill="#002650"></path>
                            </g>
                        </g>
                        <g id="noun_User_2063433_000000" transform="translate(11.043011, 20.071685)">
                            <ellipse id="Oval" fill="#0EC8C7" fill-rule="nonzero" opacity="0.2" cx="11.9569892" cy="7.42831541" rx="5" ry="5.5"></ellipse>
                            <path d="M9.95698925,25.9283154 C12.718413,25.9283154 19.9569892,24.4283154 19.9569892,20.4283154 C19.9569892,16.4283154 12.718413,14.9283154 9.95698925,14.9283154 C7.1955655,14.9283154 0.956989247,17.3907493 0.956989247,20.4283154 C0.956989247,23.4658815 7.1955655,25.9283154 9.95698925,25.9283154 Z" id="Oval-Copy" fill="#F09648"></path>
                            <path d="M10.5340502,13.046595 C13.5919195,13.046595 16.0537634,10.1130411 16.0537634,6.51043103 C16.0537634,2.90782097 13.5919195,0 10.5340502,0 C7.47618086,0 5.01433692,2.9335539 5.01433692,6.53616396 C5.01433692,10.138774 7.50209501,13.046595 10.5340502,13.046595 Z M10.5340502,0.411726863 C13.3586922,0.411726863 15.6391371,3.16515026 15.6391371,6.53616396 C15.6391371,9.90717765 13.332778,12.660601 10.5340502,12.660601 C7.73532233,12.660601 5.42896327,9.90717765 5.42896327,6.53616396 C5.42896327,3.16515026 7.70940818,0.411726863 10.5340502,0.411726863 Z" id="Shape" stroke="#002650" stroke-width="1.50537634" fill="#FFFFFF" fill-rule="nonzero"></path>
                            <path d="M19.8712599,19.1490471 C19.6643351,18.103404 18.8107702,17.3526858 17.4398933,17.0577608 C16.3018068,16.7896472 13.948037,15.1809655 13.948037,15.1541541 C13.8704402,15.1005314 13.7411122,15.1273428 13.6635154,15.2077768 C13.6635154,15.2077768 13.6635154,15.2077768 13.6635154,15.2077768 C13.6117842,15.3150223 13.6376498,15.4222677 13.7152466,15.5027018 C13.818709,15.5831359 16.1466132,17.1650063 17.3364309,17.4599313 C18.0348022,17.6207995 19.2246199,18.0765926 19.4315447,19.2562926 C19.6126039,20.4896152 19.6643351,21.7229379 19.6126039,22.9562606 C19.5867383,23.1171287 19.0694263,23.7874128 17.2329685,24.4845082 C15.4741075,25.1547923 12.2926385,25.6642082 10.6113743,25.6642082 C9.36982539,25.6642082 5.56758185,25.1547923 3.80872089,24.4845082 C1.97226312,23.7874128 1.45495108,23.1439401 1.40321987,22.9294492 C1.35148867,21.6961265 1.42908547,20.4359925 1.58427909,19.2026698 C1.79120391,18.0229699 3.00688722,17.5939881 3.67939288,17.4063086 C4.86921059,17.1113836 7.2229804,15.5295132 7.30057721,15.4490791 C7.40403962,15.3954564 7.42990522,15.2613996 7.35230841,15.1541541 C7.30057721,15.0469087 7.17124919,15.0200973 7.06778678,15.1005314 C7.04192118,15.1273428 4.68815137,16.7360245 3.57593047,17.0041381 C2.25678475,17.3526858 1.40321987,18.103404 1.22216065,19.1490471 C1.04110144,20.1142562 0.937639029,22.6345242 1.04110144,23.0366947 C1.14456385,23.4388651 1.89466632,24.1895832 3.70525848,24.8866787 C5.48998504,25.5837741 9.395691,26.09319 10.6372399,26.09319 C12.3443697,26.09319 15.57757,25.5837741 17.3881621,24.8866787 C19.1987543,24.1895832 19.9229911,23.4924878 20.0264536,23.0366947 C20.129916,22.6345242 20.0264536,20.1142562 19.8712599,19.1490471 Z" id="Path" stroke="#002650" stroke-width="1.50537634" fill="#002650"></path>
                        </g>
                    </g>
                </g>
            </g>
        </g>
    </g>
</svg>