<?xml version="1.0" encoding="UTF-8"?>
<svg width="168px" height="181px" viewBox="0 0 168 181" version="1.1" xmlns="http://www.w3.org/2000/svg" xmlns:xlink="http://www.w3.org/1999/xlink">
    <!-- Generator: sketchtool 57.1 (101010) - https://sketch.com -->
    <title>DB0E8FE3-FF6A-455A-8742-057849C5D0B2</title>
    <desc>Created with sketchtool.</desc>
    <defs>
        <path d="M80,0 C124.18278,0 160,35.81722 160,80 C160,124.18278 124.18278,160 80,160 C73.7875792,160 67.7405489,159.291879 61.935221,157.951949 L61.9354839,145.806452 C61.9354839,144.737513 61.0689382,143.870968 60,143.870968 L60,143.870968 L31.820571,143.870692 C12.4915131,129.267323 0,106.092436 0,80 C0,35.81722 35.81722,0 80,0 Z" id="path-1"></path>
        <filter x="-4.4%" y="-3.1%" width="108.8%" height="108.8%" filterUnits="objectBoundingBox" id="filter-2">
            <feOffset dx="0" dy="2" in="SourceAlpha" result="shadowOffsetOuter1"></feOffset>
            <feGaussianBlur stdDeviation="2" in="shadowOffsetOuter1" result="shadowBlurOuter1"></feGaussianBlur>
            <feColorMatrix values="0 0 0 0 0   0 0 0 0 0   0 0 0 0 0  0 0 0 0.1 0" type="matrix" in="shadowBlurOuter1"></feColorMatrix>
        </filter>
    </defs>
    <g id="web" stroke="none" stroke-width="1" fill="none" fill-rule="evenodd">
        <g id="8-selfie" transform="translate(-315.000000, -134.000000)">
            <g id="Group-2" transform="translate(319.000000, 136.000000)">
                <g id="Picto_Ident">
                    <g id="Combined-Shape" fill-rule="nonzero">
                        <use fill="black" fill-opacity="1" filter="url(#filter-2)" xlink:href="#path-1"></use>
                        <use fill="#FFFFFF" xlink:href="#path-1"></use>
                    </g>
                    <g id="noun_plastic-card_93878" transform="translate(7.741935, 143.225806)">
                        <g id="Group">
                            <rect id="Rectangle" fill="#0EC8C7" fill-rule="nonzero" opacity="0.2" x="1" y="2" width="51.6129032" height="33.5483871" rx="1.93548387"></rect>
                            <g id="camera" transform="translate(18.000000, 9.000000)">
                                <circle id="Oval" fill="#F09648" cx="8.00806452" cy="8.02419355" r="3.25"></circle>
                                <circle id="Oval" stroke="#002650" stroke-width="1.09" stroke-linecap="square" cx="8" cy="8" r="3.63636364"></circle>
                                <path d="M14.5454545,14.5454545 L1.45454545,14.5454545 C0.651222182,14.5454545 0,13.8942324 0,13.0909091 L0,3.63636364 C0,2.83304036 0.651222182,2.18181818 1.45454545,2.18181818 L4.36363636,2.18181818 L5.81818182,0 L10.1818182,0 L11.6363636,2.18181818 L14.5454545,2.18181818 C15.3487778,2.18181818 16,2.83304036 16,3.63636364 L16,13.0909091 C16,13.8942324 15.3487778,14.5454545 14.5454545,14.5454545 Z" id="Path" stroke="#002650" stroke-width="1.09090909" stroke-linecap="square"></path>
                                <circle id="Oval" fill="#FFFFFF" fill-rule="nonzero" cx="2.18181818" cy="4.36363636" r="1"></circle>
                            </g>
                            <rect id="Rectangle" stroke="#002650" stroke-width="1.29032258" fill-rule="nonzero" x="0.64516129" y="0.64516129" width="50.3225806" height="32.2580645" rx="1.93548387"></rect>
                        </g>
                    </g>
                    <g id="Group-3" transform="translate(43.870968, 28.387097)">
                        <path d="M9.63941921,81.8260136 C13.4766722,76.6607746 18.8185388,72.6253918 25.1838356,70.0625161 C25.1362058,70.9134112 25.1117803,71.741378 25.1117803,72.5642496 C25.1117803,82.1011534 29.8723189,89.5490331 33.0928269,92.2571215 C33.0928269,95.3014917 35.4669898,97.7790231 38.3870637,97.7790231 C41.3071375,97.7790231 43.6813004,95.3027655 43.6813004,92.2571215 C43.6813004,92.2380145 43.6800791,92.2189076 43.6800791,92.1998007 C46.9274552,89.4242012 51.662347,81.9967022 51.662347,72.5655234 C51.662347,71.741378 51.6367002,70.9134112 51.5902917,70.0637899 C57.9568098,72.6279394 63.2998976,76.6633222 67.1371507,81.829835 C71.583821,87.8166718 73.9164605,95.0365423 74.0776691,103.300925 L2.6976795,103.300925 C2.85888809,95.0352685 5.19152758,87.8141242 9.63941921,81.8260136 Z" id="Path" fill="#F3801D" fill-rule="nonzero" opacity="0.8"></path>
                        <g id="noun_Woman_74861" fill="#002650">
                            <g id="Group">
                                <path d="M39.8710614,58.6673548 C40.1783039,58.3330968 40.1494277,57.818767 39.8063788,57.5193978 C39.4633299,57.2200287 38.9354735,57.2481649 38.628231,57.5824229 C38.6155255,57.5959283 37.3426639,58.9374624 35.9115609,58.9374624 C34.4735276,58.9374624 33.2064412,57.5936774 33.1948907,57.5824229 C32.8876483,57.2481649 32.3597919,57.2200287 32.016743,57.5193978 C31.6736941,57.818767 31.6436629,58.3330968 31.9520604,58.6673548 C32.0236733,58.7450108 33.720437,60.5637353 35.9115609,60.5637353 C38.1026847,60.5648602 39.8006035,58.7450108 39.8710614,58.6673548 Z" id="Path"></path>
                                <path d="M46.7643809,67.8071183 C46.1533611,67.6135412 45.2154631,66.9922939 44.0523309,63.9108172 C44.2255879,63.7690108 44.398845,63.623828 44.572102,63.4741434 C46.5599376,61.7544588 48.4022373,59.6656272 49.948845,57.4023513 C51.1154422,60.0887957 53.848283,61.8670036 56.8618002,61.8670036 C57.3030281,61.8670036 57.7500312,61.8287384 58.1981894,61.749957 C62.2731946,61.034172 64.9910198,57.2200287 64.2552549,53.249448 C63.8995005,51.3260573 62.7952758,49.6525161 61.148179,48.5383226 C59.965411,47.738129 58.6047659,47.2969534 57.201384,47.2384301 C57.7719771,45.3330466 57.745411,43.3049892 57.1193757,41.4941434 C56.683923,40.2325161 55.9978252,39.2094839 55.2262539,38.622 C55.5623725,38.2010824 55.8961811,37.755405 56.2138189,37.2872186 C58.7445265,33.5586093 59.1060562,30.1845161 57.2799272,27.4800645 C58.5701145,26.1385305 61.7776795,22.3468961 61.6795005,17.8901219 C61.618283,15.0765018 60.2541727,12.5386165 57.6275963,10.3473692 C50.393538,4.3093405 37.6210302,3.65770609 32.4649011,3.65770609 C31.0534339,3.65770609 30.2114048,3.70497491 30.1767534,3.70722581 C29.8106035,3.72860932 29.501051,3.98070968 29.4144225,4.32847312 L29.1141103,5.54395699 L28.4233923,0.931870968 C28.3795005,0.637003584 28.1727471,0.389405018 27.8851405,0.285863799 C27.5975338,0.182322581 27.2764308,0.241971326 27.0465765,0.438924731 C27.0049948,0.474939068 22.7867638,4.09437993 15.7825598,10.3642509 C12.778283,13.0540717 11.2178148,16.0252545 11.1450468,19.196767 C11.0537981,23.1650968 13.3234651,26.2623297 14.3433715,27.4496774 C12.4964516,30.1597563 12.8614464,33.5451039 15.4187201,37.2883441 C15.7490635,37.7711613 16.0955775,38.2314695 16.4455567,38.6636416 C15.7040166,39.2578781 15.0537253,40.2662796 14.6471488,41.5053978 C14.0569199,43.3049892 14.0488345,45.3274194 14.6194277,47.230552 C13.1421228,47.2519355 11.7052445,47.6987384 10.4635692,48.5383226 C8.81531738,49.6536416 7.71224766,51.3260573 7.35649324,53.249448 C6.62188345,57.2200287 9.33855359,61.0330466 13.4135588,61.749957 C13.862872,61.8287384 14.3087201,61.8670036 14.749948,61.8670036 C17.833923,61.8670036 20.6233611,60.0032616 21.7414464,57.2098996 C23.3157752,59.5485806 25.2054318,61.70719 27.2498647,63.4752688 C27.4081061,63.6125735 27.5675026,63.7442509 27.725744,63.8748029 C26.861769,66.1527097 25.8961498,67.4762366 24.8531426,67.8059928 C17.6075338,70.0985305 11.5366077,74.1287599 7.2964308,79.4611326 C2.70165453,85.2391828 0.373080125,92.2304659 0.373080125,100.24253 C0.373080125,100.691584 0.74616025,101.055104 1.20702393,101.055104 L70.4012591,101.055104 C70.8621228,101.055104 71.2352029,100.691584 71.2352029,100.24253 C71.2352029,92.2315914 68.9066285,85.2403082 64.3130073,79.4633835 C60.0774506,74.1310108 54.0076795,70.1007814 46.7643809,67.8071183 Z M62.6127784,53.5375627 C63.1845265,56.6257921 61.0707908,59.5913477 57.9013424,60.1484444 C54.7330489,60.7055412 51.6906556,58.6482222 51.1165973,55.5622437 C51.3037149,55.2437419 51.4873673,54.9229892 51.6629344,54.5999857 C52.5788866,54.4874409 53.5456608,53.8144229 54.4962643,52.6180717 C55.2851613,51.6254265 56.017461,50.3221577 56.6157752,48.8613262 C57.8863267,48.8061792 59.1337773,49.1539427 60.1964204,49.8719785 C61.4773673,50.7396989 62.3355671,52.0418423 62.6127784,53.5375627 Z M51.973642,39.7575771 C52.0256191,36.6794767 51.8812383,30.8023871 50.2410718,27.4226667 C53.0062539,27.7287885 54.9860042,28.0281577 55.7252341,28.1463297 C58.7156504,32.1743082 54.388845,37.3626237 51.973642,39.7575771 Z M12.8140895,19.2327814 C12.876462,16.5204516 14.2555879,13.9397993 16.9121956,11.5606022 C21.7760978,7.20624373 25.2932154,4.13377061 26.9957544,2.65605735 L28.0872737,9.94670968 C28.145026,10.3327384 28.4753694,10.6242294 28.8750156,10.6411111 C28.8877211,10.6422366 28.9004266,10.6422366 28.9131322,10.6422366 C29.2966077,10.6422366 29.6338814,10.3856344 29.723975,10.0198638 L30.8905723,5.30536201 C31.2659625,5.29410753 31.8030593,5.28285305 32.4660562,5.28285305 C37.4362227,5.28285305 49.7316961,5.89622222 56.5430073,11.5786093 C58.7907284,13.4536057 59.9584807,15.5852043 60.0116129,17.9137563 C60.1040166,21.937233 56.8872112,25.5240358 55.9019563,26.5256846 C53.9071904,26.21281 45.287076,24.9511828 35.7764204,24.9511828 C31.8862227,24.9511828 28.1531113,25.1616416 24.962872,25.4328746 C22.3559313,22.1240573 22.2600624,19.9564444 22.2589074,19.9024229 C22.2542872,19.4567455 21.8823621,19.0966022 21.4249636,19.0966022 C20.9640999,19.0966022 20.5910198,19.4601219 20.5910198,19.9091756 C20.5910198,20.0104659 20.6233611,22.2366022 23.0293236,25.6084444 C22.3882726,25.6714695 21.7784079,25.7356201 21.2008845,25.7997706 C21.1743184,25.7322437 21.1419771,25.6658423 21.0946202,25.6039427 C15.0260042,17.6211398 19.8852862,13.7248387 20.102435,13.5582724 C20.4651197,13.2836631 20.5309573,12.7749606 20.250281,12.4204444 C19.9684495,12.0648029 19.4452133,11.9984014 19.0802185,12.2730108 C19.0120708,12.3247814 17.3915401,13.5638996 16.699667,15.991491 C15.6508845,19.6705806 17.4619979,23.3845591 19.3447242,26.0169821 C17.6237045,26.2308172 16.3623933,26.4198925 15.7294277,26.5189319 C14.9347555,25.6219498 12.7320812,22.7925735 12.8140895,19.2327814 Z M15.8795838,28.1463297 C16.6234339,28.0281577 18.6251301,27.7231613 21.4214984,27.4136631 C19.7755567,30.7956344 19.6323309,36.6907312 19.684308,39.7677061 C17.2563996,37.3806308 12.8810822,32.1855627 15.8795838,28.1463297 Z M20.4963059,55.5577419 C19.9245578,58.6459713 16.8810094,60.7055412 13.7115609,60.1484444 C10.5421124,59.5913477 8.42837669,56.6257921 9.00012487,53.5375627 C9.27733611,52.0418423 10.1355359,50.7396989 11.4164828,49.8731039 C12.5391883,49.1134265 13.8674922,48.7667885 15.2131217,48.8737061 C15.810281,50.3289104 16.5402706,51.6276774 17.3280125,52.6180717 C18.278616,53.8144229 19.2453902,54.4874409 20.1613424,54.5999857 C20.2953278,54.8475842 20.4339334,55.0940573 20.5760042,55.339405 C20.5401977,55.4069319 20.5113215,55.4789606 20.4963059,55.5577419 Z M21.411103,53.4160143 C21.2436212,53.0930108 20.8751613,52.9174409 20.5113215,52.9838423 C19.9384183,53.0930108 18.5292612,51.9315484 17.2795005,49.4184229 C17.7253486,49.6266308 18.1434755,49.8888602 18.5211759,50.2006093 C18.8723101,50.4909749 19.4001665,50.4482079 19.6970135,50.1060717 C19.9950156,49.7639355 19.9511238,49.2507312 19.5999896,48.9603656 C18.6898127,48.2085663 17.6029136,47.6829821 16.4374714,47.4207527 C16.3889594,47.2856989 16.3416025,47.1483943 16.2954006,47.0088387 C15.5515505,44.7646953 15.9408012,42.9077061 16.2388033,41.9994695 C16.6037981,40.8875269 17.1235692,40.214509 17.5197503,39.9050108 C18.8503642,41.3512115 19.9880853,42.271828 20.0585432,42.3292258 C20.2110094,42.4518996 20.399282,42.5149247 20.5898647,42.5149247 C20.71923,42.5149247 20.8485952,42.4856631 20.9687201,42.4260143 C21.2644121,42.2785806 21.4434443,41.9747097 21.4226535,41.6517061 C21.2286056,38.5634767 21.2297607,30.025828 23.4890323,27.199828 C26.9553278,26.8666953 31.2590323,26.5785806 35.7775754,26.5785806 C40.3353902,26.5785806 44.6852966,26.8723226 48.1793132,27.2088315 C50.4304995,30.0427097 50.4316545,38.5657276 50.2376067,41.6517061 C50.2168158,41.9747097 50.3958481,42.2797061 50.6926951,42.4260143 C50.8116649,42.4856631 50.9421852,42.5137993 51.0703954,42.5137993 C51.2609781,42.5137993 51.4504058,42.4496487 51.602872,42.3269749 C51.6744849,42.2695771 52.8226015,41.3343297 54.1589906,39.8689964 C54.5713424,40.1627384 55.1373153,40.8492616 55.5392716,42.010724 C55.8534443,42.9189606 56.2692612,44.7770753 55.5311863,47.0077133 C55.4907596,47.1315125 55.4480229,47.2530609 55.4064412,47.3723584 C54.1555255,47.6143297 52.9854631,48.1590466 52.0163788,48.9592401 C51.6652445,49.2496057 51.6213528,49.76281 51.9193548,50.1049462 C52.2173569,50.4470824 52.7440583,50.4898495 53.0951925,50.1994839 C53.5479709,49.8258351 54.0585016,49.5253405 54.6036837,49.3025018 C53.3400624,51.8932832 51.8974089,53.0907599 51.3152653,52.9827168 C50.9514256,52.91519 50.5829657,53.0907599 50.4154839,53.4148889 C46.8255983,60.3262652 40.3203746,65.9490038 35.913871,65.9490038 C31.5062123,65.950129 25.0009886,60.3273907 21.411103,53.4160143 Z M29.1002497,64.9259713 C31.5281582,66.6456559 33.8948491,67.5764014 35.9115609,67.5764014 C37.9144121,67.5764014 40.2626223,66.6569104 42.67436,64.9597348 C43.7208325,67.5685233 44.8135068,68.8999283 46.2480749,69.3546093 C46.3589594,69.3894982 46.4686889,69.426638 46.5795734,69.4626523 C46.6546514,70.4305376 46.692768,71.3556559 46.692768,72.2740215 C46.692768,79.3823513 43.1086576,85.2099211 40.4197086,87.779319 C39.6596878,86.0269964 37.8774506,84.7946308 35.8064516,84.7946308 C33.7135068,84.7946308 31.918564,86.0528817 31.1712487,87.8322151 C26.6342248,83.719828 24.9201353,76.2277204 24.9201353,72.2728961 C24.9201353,71.3567814 24.9594069,70.4316631 25.0333299,69.4626523 C25.1453694,69.4255125 25.2574089,69.3883728 25.3706035,69.3534839 C26.8710094,68.8774194 28.0676379,67.4593548 29.1002497,64.9259713 Z M39.1445369,89.6723226 C39.1445369,91.4651613 37.6475963,92.9248674 35.8064516,92.9248674 C33.965307,92.9248674 32.4683663,91.4662867 32.4683663,89.6723226 C32.4683663,87.8783584 33.965307,86.4197778 35.8064516,86.4197778 C37.6475963,86.4197778 39.1445369,87.8783584 39.1445369,89.6723226 Z M2.05251821,99.4288315 C2.20498439,92.1269247 4.41112383,85.7467599 8.61780437,80.4560287 C12.2469615,75.8923369 17.2991363,72.3269176 23.3192404,70.0625161 C23.2741935,70.8143154 23.2510926,71.5458566 23.2510926,72.2728961 C23.2510926,80.6991254 27.7534651,87.2796201 30.7993236,89.6723226 C30.7993236,89.6723226 30.7993236,89.6723226 30.7993236,89.6723226 C30.7993236,92.3621434 33.0447347,94.5511398 35.8064516,94.5511398 C38.5681686,94.5511398 40.8135796,92.3632688 40.8135796,89.6723226 C40.8135796,89.6554409 40.8124246,89.6385591 40.8124246,89.6216774 C43.8836941,87.1693262 48.3618106,80.6068387 48.3618106,72.2740215 C48.3618106,71.5458566 48.3375546,70.8143154 48.2936629,70.0636416 C54.314922,72.3291685 59.3682518,75.8945878 62.9974089,80.459405 C67.2029344,85.7490108 69.4090739,92.1280502 69.5615401,99.429957 L2.05251821,99.429957 L2.05251821,99.4288315 Z" id="Shape" fill-rule="nonzero"></path>
                            </g>
                        </g>
                    </g>
                    <path d="M67.3068046,82.8880562 C67.1366267,82.5597595 66.7622352,82.3813126 66.3925383,82.4488022 C65.8104124,82.5597595 64.3785704,81.3792644 63.1086908,78.8249564 C63.5617163,79.0365762 63.9865743,79.3031027 64.3703549,79.6199605 C64.7271418,79.9150843 65.2634957,79.8716164 65.5651214,79.5238736 C65.8679208,79.1761309 65.8233224,78.6545167 65.4665356,78.3593929 C64.5417065,77.5952739 63.4373103,77.061077 62.2531066,76.7945505 C62.2038137,76.6572836 62.1556944,76.5177289 62.1087487,76.3758865 C61.3529239,74.0949684 61.748441,72.2075488 62.0512403,71.284429 C62.4221109,70.154265 62.9502493,69.4702183 63.3528082,69.1556484 C64.7048426,70.6255479 65.8608789,71.5612505 65.932471,71.619589 C66.0873917,71.744273 66.2786951,71.8083309 66.4723459,71.8083309 C66.6037937,71.8083309 66.7352415,71.7785898 66.8573001,71.7179636 C67.1577522,71.5681139 67.3396666,71.2592634 67.318541,70.9309668 C67.1213694,67.7921307 67.122543,59.1145759 69.4181848,56.2422664 C72.9402813,55.9036747 77.3132676,55.6108387 81.9045511,55.6108387 C86.5357385,55.6108387 90.9556704,55.9093942 94.5059344,56.2514175 C96.7933606,59.1317343 96.7945343,67.7944185 96.5973626,70.9309668 C96.576237,71.2592634 96.7581514,71.5692578 97.0597771,71.7179636 C97.1806621,71.7785898 97.3132836,71.807187 97.4435577,71.807187 C97.6372085,71.807187 97.8296856,71.7419853 97.9846062,71.6173012 C98.057372,71.5589628 99.2239711,70.6083896 100.581874,69.1190439 C101.000864,69.4175994 101.575948,70.1153727 101.984375,71.2958679 C102.303605,72.2189877 102.726116,74.1075512 101.976159,76.3747426 C101.935082,76.5005705 101.891657,76.6241107 101.849406,76.7453632 C100.578353,76.9912997 99.3894545,77.5449428 98.4047697,78.358249 C98.0479828,78.6533728 98.0033845,79.174987 98.3061838,79.5227298 C98.6089832,79.8704725 99.1441635,79.9139404 99.5009504,79.6188166 C99.9610176,79.2390449 100.479767,78.9336261 101.033725,78.7071357 C99.7497623,81.3403721 98.2838847,82.5574718 97.6923696,82.4476583 C97.3226727,82.3790248 96.9482812,82.5574718 96.7781033,82.8869123 C93.1304271,89.911545 86.5204811,95.6264231 82.0430408,95.6264231 C77.5644268,95.6275668 70.9544808,89.9126889 67.3068046,82.8880562 Z" id="Path" fill="#0EC8C7" fill-rule="nonzero" opacity="0.2"></path>
                    <path d="M58.6205411,48.9102007 C58.6829136,46.197871 60.0620395,43.6172186 62.7186472,41.2380215 C67.5825494,36.8836631 71.099667,33.81119 72.802206,32.3334767 L73.8937253,39.624129 C73.9514776,40.0101577 74.281821,40.3016487 74.6814672,40.3185305 C74.6941727,40.3196559 74.7068783,40.3196559 74.7195838,40.3196559 C75.1030593,40.3196559 75.440333,40.0630538 75.5304266,39.6972832 L76.6970239,34.9827814 C77.0724142,34.9715269 77.6095109,34.9602724 78.2725078,34.9602724 C83.2426743,34.9602724 95.5381478,35.5736416 102.349459,41.2560287 C104.59718,43.1310251 105.764932,45.2626237 105.818065,47.5911756 C105.910468,51.6146523 102.693663,55.2014552 101.708408,56.2031039 C99.713642,55.8902294 91.0935276,54.6286022 81.582872,54.6286022 C77.6926743,54.6286022 73.959563,54.8390609 70.7693236,55.1102939 C68.1623829,51.8014767 68.066514,49.6338638 68.065359,49.5798423 C68.0607388,49.1341649 67.6888137,48.7740215 67.2314152,48.7740215 C66.7705515,48.7740215 66.3974714,49.1375412 66.3974714,49.586595 C66.3974714,49.6878853 66.4298127,51.9140215 68.8357752,55.2858638 C68.1947242,55.3488889 67.5848595,55.4130394 67.0073361,55.47719 C66.98077,55.4096631 66.9484287,55.3432616 66.9010718,55.281362 C60.8324558,47.2985591 65.6917378,43.4022581 65.9088866,43.2356918 C66.2715713,42.9610824 66.3374089,42.4523799 66.0567326,42.0978638 C65.7749011,41.7422222 65.2516649,41.6758208 64.8866701,41.9504301 C64.8185224,42.0022007 63.1979917,43.241319 62.5061186,45.6689104 C61.4573361,49.348 63.2684495,53.0619785 65.1511759,55.6944014 C63.4301561,55.9082366 62.168845,56.0973118 61.5358793,56.1963513 C60.7412071,55.2993692 58.5385328,52.4699928 58.6205411,48.9102007 Z" id="Path" fill="#0EC8C7" fill-rule="nonzero" opacity="0.2"></path>
                </g>
            </g>
        </g>
    </g>
</svg>