<?xml version="1.0" encoding="UTF-8"?>
<svg width="168px" height="168px" viewBox="0 0 168 168" version="1.1" xmlns="http://www.w3.org/2000/svg" xmlns:xlink="http://www.w3.org/1999/xlink">
    <!-- Generator: sketchtool 57 (101010) - https://sketch.com -->
    <title>1CBBEAA2-9FBC-4EAD-AE03-493D186E6C03</title>
    <desc>Created with sketchtool.</desc>
    <defs>
        <circle id="path-1" cx="80" cy="80" r="80"></circle>
        <filter x="-4.4%" y="-3.1%" width="108.8%" height="108.8%" filterUnits="objectBoundingBox" id="filter-2">
            <feOffset dx="0" dy="2" in="SourceAlpha" result="shadowOffsetOuter1"></feOffset>
            <feGaussianBlur stdDeviation="2" in="shadowOffsetOuter1" result="shadowBlurOuter1"></feGaussianBlur>
            <feColorMatrix values="0 0 0 0 0   0 0 0 0 0   0 0 0 0 0  0 0 0 0.1 0" type="matrix" in="shadowBlurOuter1"></feColorMatrix>
        </filter>
    </defs>
    <g id="web" stroke="none" stroke-width="1" fill="none" fill-rule="evenodd">
        <g id="3-mobilenumber" transform="translate(-315.000000, -134.000000)">
            <rect fill="#FAFAFA" x="0" y="0" width="1440" height="1024"></rect>
            <g id="Group-5" transform="translate(319.000000, 136.000000)">
                <g id="Group-2">
                    <g id="Combined-Shape" fill-rule="nonzero">
                        <use fill="black" fill-opacity="1" filter="url(#filter-2)" xlink:href="#path-1"></use>
                        <use fill="#FFFFFF" xlink:href="#path-1"></use>
                    </g>
                    <g id="mobile-dev" transform="translate(50.000000, 35.000000)">
                        <rect id="Rectangle-Copy" fill="#0EC8C7" fill-rule="nonzero" opacity="0.2" x="13.5" y="16.5" width="42" height="54" rx="1.5"></rect>
                        <path d="M54,90 L6,90 C2.7,90 0,87.3 0,84 L0,6 C0,2.7 2.7,0 6,0 L54,0 C57.3,0 60,2.7 60,6 L60,84 C60,87.3 57.3,90 54,90 Z" id="Path" stroke="#002650" stroke-width="3" stroke-linecap="square"></path>
                        <rect id="Rectangle" stroke="#002650" stroke-width="3" stroke-linecap="square" x="9" y="12" width="42" height="54" rx="1.5"></rect>
                        <circle id="Oval" stroke="#002650" stroke-width="3" stroke-linecap="square" cx="30" cy="78" r="3"></circle>
                        <circle id="Oval-Copy" fill="#F09648" cx="30" cy="78" r="3"></circle>
                    </g>
                </g>
            </g>
        </g>
    </g>
</svg>