<?xml version="1.0" encoding="UTF-8"?>
<svg width="336px" height="369px" viewBox="0 0 336 369" version="1.1" xmlns="http://www.w3.org/2000/svg" xmlns:xlink="http://www.w3.org/1999/xlink">
    <!-- Generator: sketchtool 57.1 (101010) - https://sketch.com -->
    <title>1ABD3E0D-6B37-4C75-BC6C-F412EF1560E5</title>
    <desc>Created with sketchtool.</desc>
    <defs>
        <path d="M164,0 C254.574699,0 328,73.425301 328,164 C328,254.574699 254.574699,328 164,328 C151.264475,328 138.868004,326.548338 126.967028,323.801454 L126.967742,298.903226 C126.967742,296.711902 125.191323,294.935484 123,294.935484 L123,294.935484 L65.2335472,294.935958 C25.608195,264.999112 0,217.490113 0,164 C0,73.425301 73.425301,0 164,0 Z" id="path-1"></path>
        <filter x="-2.1%" y="-1.5%" width="104.3%" height="104.3%" filterUnits="objectBoundingBox" id="filter-2">
            <feOffset dx="0" dy="2" in="SourceAlpha" result="shadowOffsetOuter1"></feOffset>
            <feGaussianBlur stdDeviation="2" in="shadowOffsetOuter1" result="shadowBlurOuter1"></feGaussianBlur>
            <feColorMatrix values="0 0 0 0 0   0 0 0 0 0   0 0 0 0 0  0 0 0 0.1 0" type="matrix" in="shadowBlurOuter1"></feColorMatrix>
        </filter>
    </defs>
    <g id="web" stroke="none" stroke-width="1" fill="none" fill-rule="evenodd">
        <g id="10-danke" transform="translate(-552.000000, -306.000000)">
            <g id="Picto_Ident" transform="translate(556.000000, 308.000000)">
                <g id="Combined-Shape" fill-rule="nonzero">
                    <use fill="black" fill-opacity="1" filter="url(#filter-2)" xlink:href="#path-1"></use>
                    <use fill="#FFFFFF" xlink:href="#path-1"></use>
                </g>
                <g id="noun_plastic-card_93878" transform="translate(15.870968, 293.612903)">
                    <g id="Group">
                        <rect id="Rectangle" fill="#0EC8C7" fill-rule="nonzero" opacity="0.2" x="2.64516129" y="3.96774194" width="105.806452" height="68.7741935" rx="3.96774194"></rect>
                        <rect id="Rectangle" stroke="#002650" stroke-width="2.64516129" fill-rule="nonzero" x="1.32258065" y="1.32258065" width="103.16129" height="66.1290323" rx="3.96774194"></rect>
                        <path d="M88.8774194,9.25806452 L16.6645161,9.25806452 C16.2677419,9.25806452 15.8709677,9.91935484 15.8709677,10.5806452 C15.8709677,11.2419355 16.2677419,11.9032258 16.6645161,11.9032258 L88.8774194,11.9032258 C89.2741935,11.9032258 89.6709677,11.2419355 89.6709677,10.5806452 C89.6709677,9.91935484 89.4064516,9.25806452 88.8774194,9.25806452 Z" id="Path" fill="#002650"></path>
                        <path d="M71.2870968,17.1935484 L16.6645161,17.1935484 C16.2677419,17.1935484 15.8709677,17.8548387 15.8709677,18.516129 C15.8709677,19.1774194 16.2677419,19.8387097 16.6645161,19.8387097 L71.2870968,19.8387097 C71.683871,19.8387097 72.0806452,19.1774194 72.0806452,18.516129 C72.0806452,17.8548387 71.683871,17.1935484 71.2870968,17.1935484 Z" id="Path" fill="#002650"></path>
                        <path d="M89.4126755,29.0967742 L53.4260342,29.0967742 C53.16463,29.0967742 52.9032258,29.7580645 52.9032258,30.4193548 C52.9032258,31.0806452 53.16463,31.7419355 53.4260342,31.7419355 L89.4126755,31.7419355 C89.6740797,31.7419355 89.9354839,31.0806452 89.9354839,30.4193548 C89.9354839,29.7580645 89.6740797,29.0967742 89.4126755,29.0967742 Z" id="Path" fill="#002650"></path>
                        <path d="M78.9814042,35.7096774 L53.2766603,35.7096774 C53.0899431,35.7096774 52.9032258,36.3709677 52.9032258,37.0322581 C52.9032258,37.6935484 53.0899431,38.3548387 53.2766603,38.3548387 L78.9814042,38.3548387 C79.1681214,38.3548387 79.3548387,37.6935484 79.3548387,37.0322581 C79.3548387,36.3709677 79.1681214,35.7096774 78.9814042,35.7096774 Z" id="Path" fill="#002650"></path>
                        <path d="M84.1970398,42.3225806 L53.3513472,42.3225806 C53.1272865,42.3225806 52.9032258,42.983871 52.9032258,43.6451613 C52.9032258,44.3064516 53.1272865,44.9677419 53.3513472,44.9677419 L84.1970398,44.9677419 C84.4211006,44.9677419 84.6451613,44.3064516 84.6451613,43.6451613 C84.6451613,42.983871 84.4211006,42.3225806 84.1970398,42.3225806 Z" id="Path" fill="#002650"></path>
                        <path d="M78.9814042,48.9354839 L53.2766603,48.9354839 C53.0899431,48.9354839 52.9032258,49.5967742 52.9032258,50.2580645 C52.9032258,50.9193548 53.0899431,51.5806452 53.2766603,51.5806452 L78.9814042,51.5806452 C79.1681214,51.5806452 79.3548387,50.9193548 79.3548387,50.2580645 C79.3548387,49.5967742 79.1681214,48.9354839 78.9814042,48.9354839 Z" id="Path" fill="#002650"></path>
                    </g>
                </g>
                <g id="Group-3" transform="translate(89.935484, 58.193548)">
                    <path d="M19.7608094,167.743328 C27.6271781,157.154588 38.5780045,148.882053 51.6268631,143.628158 C51.529222,145.372493 51.4791496,147.069825 51.4791496,148.756712 C51.4791496,168.307364 61.2382537,183.575518 67.8402952,189.127099 C67.8402952,195.368058 72.7073292,200.446997 78.6934805,200.446997 C84.6796319,200.446997 89.5466658,195.370669 89.5466658,189.127099 C89.5466658,189.08793 89.5441622,189.048761 89.5441622,189.009591 C96.2012833,183.319613 105.907811,168.093239 105.907811,148.759323 C105.907811,147.069825 105.855235,145.372493 105.760098,143.630769 C118.81146,148.887276 129.76479,157.15981 137.631159,167.751162 C146.746833,180.024177 151.528744,194.824912 151.859222,211.766896 L5.53024298,211.766896 C5.86072059,194.8223 10.6426315,180.018955 19.7608094,167.743328 Z" id="Path" fill="#F3801D" fill-rule="nonzero" opacity="0.8"></path>
                    <g id="noun_Woman_74861" fill="#002650">
                        <g id="Group">
                            <path d="M81.7356759,120.268077 C82.3655229,119.582848 82.3063267,118.528472 81.6030765,117.914766 C80.8998262,117.301059 79.8177206,117.358738 79.1878736,118.043967 C79.1618273,118.071653 76.552461,120.821798 73.6186998,120.821798 C70.6707315,120.821798 68.0732045,118.067039 68.049526,118.043967 C67.419679,117.358738 66.3375734,117.301059 65.6343231,117.914766 C64.9310728,118.528472 64.8695088,119.582848 65.5017237,120.268077 C65.6485302,120.427272 69.1268959,124.155657 73.6186998,124.155657 C78.1105036,124.157963 81.5912373,120.427272 81.7356759,120.268077 Z" id="Path"></path>
                            <path d="M95.8669807,139.004592 C94.6143902,138.607759 92.6916993,137.334203 90.3072784,131.017175 C90.6624553,130.726472 91.0176322,130.428847 91.3728091,130.121994 C95.447872,126.596641 99.2245864,122.314536 102.395132,117.67482 C104.786657,123.182031 110.38898,126.827357 116.56669,126.827357 C117.471208,126.827357 118.387564,126.748914 119.306288,126.587412 C127.660049,125.120053 133.231591,117.301059 131.723273,109.161368 C130.993976,105.218418 128.730315,101.787658 125.353767,99.5035613 C122.929093,97.8631645 120.13977,96.9587545 117.262837,96.8387817 C118.432553,92.9327455 118.378093,88.775228 117.09472,85.0629939 C116.202042,82.4766581 114.795542,80.3794419 113.21382,79.1751 C113.902864,78.312219 114.587171,77.3985803 115.238329,76.4387982 C120.426279,68.7951491 121.167415,61.8782581 117.423851,56.3341323 C120.068735,53.5839875 126.644243,45.8111369 126.442976,36.6747498 C126.31748,30.9068287 123.521054,25.7041638 118.136572,21.2121068 C103.306753,8.83414803 77.1231119,7.49829749 66.5530473,7.49829749 C63.6595395,7.49829749 61.9333798,7.59519857 61.8623444,7.5998129 C61.1117373,7.6436491 60.4771545,8.16045484 60.2995661,8.87336989 L59.6839261,11.3651118 L58.2679542,1.91033548 C58.1779761,1.30585735 57.7541316,0.798280287 57.164538,0.586020789 C56.5749443,0.37376129 55.9166831,0.496041219 55.4454818,0.899795699 C55.3602393,0.97362509 46.7128658,8.39347885 32.3542477,21.2467143 C26.1954802,26.760847 22.9965203,32.8517717 22.847346,39.3533724 C22.6602862,47.4884484 27.3131035,53.837776 29.4039116,56.2718387 C25.6177258,61.8275004 26.3659651,68.7674631 31.6083762,76.4411054 C32.2855801,77.4308806 32.9959339,78.3745125 33.7133913,79.2604652 C32.1932341,80.4786502 30.8601368,82.5458731 30.026655,85.0860656 C28.8166857,88.775228 28.8001108,92.9212097 29.9698267,96.8226315 C26.9413517,96.8664677 23.9957513,97.7824136 21.4503169,99.5035613 C18.0714006,101.789965 15.8101077,105.218418 15.0808111,109.161368 C13.5748611,117.301059 19.1440349,125.117746 27.4977955,126.587412 C28.4188876,126.748914 29.3328762,126.827357 30.2373933,126.827357 C36.5595421,126.827357 42.2778902,123.006686 44.5699651,117.280294 C47.7973392,122.07459 51.6711353,126.499739 55.8622227,130.124301 C56.1866176,130.405776 56.5133803,130.675714 56.8377752,130.943346 C55.0666264,135.613055 53.0871072,138.326285 50.9489422,139.002285 C36.0954443,143.701987 23.6500458,151.963958 14.9576831,162.895322 C5.53839178,174.740325 0.764814256,189.072455 0.764814256,205.497187 C0.764814256,206.417748 1.52962851,207.162963 2.47439906,207.162963 L144.322581,207.162963 C145.267352,207.162963 146.032166,206.417748 146.032166,205.497187 C146.032166,189.074762 141.258588,174.742632 131.841665,162.899936 C123.158774,151.968572 110.715743,143.706602 95.8669807,139.004592 Z M128.356196,109.752004 C129.528279,116.082874 125.195121,122.162263 118.697752,123.304311 C112.20275,124.446359 105.965844,120.228856 104.789024,113.9026 C105.172616,113.249671 105.549103,112.592128 105.909016,111.929971 C107.786717,111.699254 109.768605,110.319567 111.717342,107.867047 C113.334581,105.832124 114.835795,103.160423 116.062339,100.165719 C118.66697,100.052667 121.224243,100.765582 123.402662,102.237556 C126.028603,104.016383 127.787913,106.685777 128.356196,109.752004 Z M106.545966,81.503033 C106.652519,75.1929272 106.356539,63.1448935 102.994197,56.2164667 C108.66282,56.8440165 112.721309,57.4577233 114.23673,57.699976 C120.367083,65.9573319 111.497132,76.5933785 106.545966,81.503033 Z M26.2688835,39.4272018 C26.3967471,33.8669258 29.2239553,28.5765885 34.670001,23.6992344 C44.6410005,14.7727996 51.8510916,8.47422975 55.3412966,5.44491756 L57.578911,20.3907548 C57.6973033,21.1821136 58.3745073,21.7796703 59.193782,21.8142778 C59.2198283,21.8165849 59.2458746,21.8165849 59.2719209,21.8165849 C60.0580458,21.8165849 60.7494568,21.2905505 60.9341488,20.5407208 L63.3256733,10.8759921 C64.0952232,10.8529204 65.1962716,10.8298487 66.5554152,10.8298487 C76.7442565,10.8298487 101.949977,12.0872556 115.913165,23.7361491 C120.520993,27.5798918 122.914886,31.9496688 123.023806,36.7232004 C123.213234,44.9713276 116.618783,52.3242735 114.59901,54.3776534 C110.50974,53.7362606 92.8385057,51.1499247 73.3416618,51.1499247 C65.3667565,51.1499247 57.7138783,51.5813652 51.1738876,52.1373928 C45.8296592,45.3543176 45.633128,40.9107111 45.6307601,40.799967 C45.6212888,39.8863283 44.8588424,39.1480344 43.9211753,39.1480344 C42.9764048,39.1480344 42.2115905,39.8932498 42.2115905,40.81381 C42.2115905,41.0214552 42.2778902,45.5850344 47.2101134,52.4973111 C45.8959589,52.6265125 44.6457362,52.7580211 43.4618132,52.8895297 C43.4073528,52.7510996 43.3410531,52.6149767 43.2439714,52.4880824 C30.8033085,36.1233366 40.7648366,28.1359194 41.2099917,27.7944584 C41.9534953,27.2315093 42.0884625,26.1886692 41.513076,25.4619111 C40.9353215,24.7328459 39.8626873,24.5967229 39.114448,25.159672 C38.9747451,25.2658018 35.6526571,27.8059943 34.2343174,32.7825566 C32.0843132,40.3246903 35.7970957,47.9383462 39.6566847,53.3348133 C36.1285942,53.7731753 33.5429063,54.1607796 32.2453267,54.3638104 C30.6162487,52.5249971 26.1007664,46.7247756 26.2688835,39.4272018 Z M32.5531467,57.699976 C34.0780395,57.4577233 38.1815166,56.8324806 43.9140718,56.1980093 C40.5398913,63.1310505 40.2462784,75.2159989 40.3528314,81.5237975 C35.3756191,76.6302932 26.4062185,65.9804036 32.5531467,57.699976 Z M42.0174272,113.893371 C40.8453434,120.224241 34.6060692,124.446359 28.1086998,123.304311 C21.6113304,122.162263 17.2781722,116.082874 18.450256,109.752004 C19.018539,106.685777 20.7778486,104.016383 23.4037898,102.239863 C25.7053361,100.682524 28.428359,99.9719165 31.1868996,100.191097 C32.411076,103.174266 33.9075546,105.836739 35.5224256,107.867047 C37.4711629,110.319567 39.4530499,111.699254 41.3307518,111.929971 C41.605422,112.437548 41.8895635,112.942818 42.1808085,113.44578 C42.1074053,113.58421 42.0482092,113.731869 42.0174272,113.893371 Z M43.8927612,109.502829 C43.5494235,108.840672 42.7940806,108.480754 42.0482092,108.616877 C40.8737575,108.840672 37.9849854,106.459674 35.4229761,101.307767 C36.3369646,101.734593 37.1941249,102.272163 37.9684105,102.911249 C38.6882357,103.506499 39.7703413,103.418826 40.3788777,102.717447 C40.989782,102.016068 40.8998039,100.963999 40.1799787,100.368749 C38.314116,98.8275609 36.0859729,97.7501133 33.6968163,97.212543 C33.5973668,96.9356828 33.5002851,96.6542082 33.4055713,96.3681194 C31.8806785,91.7676254 32.6786426,87.9607975 33.2895468,86.0989125 C34.0377862,83.8194301 35.1033169,82.4397434 35.915488,81.805272 C38.6432466,84.7699835 40.9755749,86.6572473 41.1200135,86.7749129 C41.4325692,87.0263943 41.8185281,87.1555957 42.2092227,87.1555957 C42.4744214,87.1555957 42.7396202,87.0956093 42.9858762,86.9733294 C43.5920447,86.6710903 43.9590609,86.0481548 43.9164396,85.3859975 C43.5186415,79.0551272 43.5210094,61.5529473 48.1525161,55.7596473 C55.258422,55.0767254 64.0810161,54.4860903 73.3440297,54.4860903 C82.6875499,54.4860903 91.604858,55.0882613 98.7675921,55.7781047 C103.382524,61.5875548 103.384892,79.0597416 102.987094,85.3859975 C102.944472,86.0481548 103.311489,86.6733975 103.920025,86.9733294 C104.163913,87.0956093 104.43148,87.1532885 104.694311,87.1532885 C105.085005,87.1532885 105.473332,87.0217799 105.785888,86.7702986 C105.932694,86.652633 108.286333,84.735376 111.025931,81.7314427 C111.871252,82.3336136 113.031496,83.7409864 113.855507,86.1219842 C114.499561,87.9838692 115.351985,91.7930043 113.838932,96.3658122 C113.756057,96.6196007 113.668447,96.8687749 113.583204,97.1133348 C111.018827,97.609376 108.620199,98.7260455 106.633576,100.366442 C105.913751,100.961692 105.823773,102.013761 106.434677,102.71514 C107.045582,103.416519 108.125319,103.504191 108.845145,102.908942 C109.77334,102.142962 110.819928,101.526948 111.937552,101.070129 C109.347128,106.38123 106.389688,108.836058 105.196294,108.61457 C104.450422,108.476139 103.69508,108.836058 103.351742,109.500522 C95.9924766,123.668844 82.656768,135.195458 73.6234355,135.195458 C64.5877352,135.197765 51.2520265,123.671151 43.8927612,109.502829 Z M59.655512,133.098241 C64.6327242,136.623595 69.4844407,138.531623 73.6186998,138.531623 C77.7245447,138.531623 82.5383757,136.646666 87.4824381,133.167456 C89.6277066,138.515473 91.8676889,141.244853 94.8085536,142.176949 C95.0358668,142.248471 95.2608122,142.324608 95.4881254,142.398437 C95.6420354,144.382602 95.7201743,146.279095 95.7201743,148.161744 C95.7201743,162.73382 88.3727482,174.680338 82.8604027,179.947604 C81.30236,176.355343 77.6487737,173.828993 73.4032258,173.828993 C69.1126889,173.828993 65.4330562,176.408408 63.9010598,180.056041 C54.6001608,171.625647 51.0862773,156.266827 51.0862773,148.159437 C51.0862773,146.281402 51.1667841,144.384909 51.3183262,142.398437 C51.5480073,142.322301 51.7776883,142.246164 52.0097373,142.174642 C55.0855692,141.19871 57.5386576,138.291677 59.655512,133.098241 Z M80.2463007,183.828261 C80.2463007,187.503581 77.1775723,190.495978 73.4032258,190.495978 C69.6288793,190.495978 66.5601509,187.505888 66.5601509,183.828261 C66.5601509,180.150635 69.6288793,177.160544 73.4032258,177.160544 C77.1775723,177.160544 80.2463007,180.150635 80.2463007,183.828261 Z M4.20766233,203.829105 C4.520218,188.860196 9.04280385,175.780858 17.666499,164.934859 C25.1062711,155.579291 35.4632294,148.270181 47.8044428,143.628158 C47.7120968,145.169347 47.6647399,146.669006 47.6647399,148.159437 C47.6647399,165.433207 56.8946035,178.923221 63.1386134,183.828261 C63.1386134,183.828261 63.1386134,183.828261 63.1386134,183.828261 C63.1386134,189.342394 67.741706,193.829837 73.4032258,193.829837 C79.0647456,193.829837 83.6678382,189.344701 83.6678382,183.828261 C83.6678382,183.793654 83.6654703,183.759046 83.6654703,183.724439 C89.9615728,178.697119 99.1417118,165.244019 99.1417118,148.161744 C99.1417118,146.669006 99.091987,145.169347 99.0020088,143.630465 C111.34559,148.274795 121.704916,155.583905 129.144688,164.94178 C137.766016,175.785472 142.288601,188.862503 142.601157,203.831412 L4.20766233,203.831412 L4.20766233,203.829105 Z" id="Shape" fill-rule="nonzero"></path>
                        </g>
                    </g>
                </g>
                <path d="M137.978949,169.920515 C137.630085,169.247507 136.862582,168.881691 136.104704,169.020044 C134.911345,169.247507 131.976069,166.827492 129.372816,161.591161 C130.301518,162.024981 131.172477,162.571361 131.959228,163.220919 C132.690641,163.825923 133.790166,163.736814 134.408499,163.023941 C135.029238,162.311068 134.937811,161.241759 134.206398,160.636755 C132.310498,159.070312 130.046486,157.975208 127.618868,157.428828 C127.517818,157.147431 127.419173,156.861344 127.322935,156.570567 C125.773494,151.894685 126.584304,148.025475 127.205043,146.133079 C127.965327,143.816243 129.048011,142.413948 129.873257,141.769079 C132.644927,144.782373 135.014802,146.700564 135.161566,146.820157 C135.479153,147.07576 135.871325,147.207078 136.268309,147.207078 C136.537777,147.207078 136.807245,147.146109 137.057465,147.021825 C137.673392,146.714633 138.046316,146.08149 138.003009,145.408482 C137.598807,138.973868 137.601213,121.184881 142.307279,115.296646 C149.527577,114.602533 158.492199,114.002219 167.90433,114.002219 C177.398264,114.002219 186.459124,114.614258 193.737165,115.315406 C198.426389,121.220055 198.428795,138.978558 198.024593,145.408482 C197.981286,146.08149 198.35421,146.716978 198.972543,147.021825 C199.220357,147.146109 199.492231,147.204733 199.759293,147.204733 C200.156277,147.204733 200.550855,147.07107 200.868443,146.815467 C201.017613,146.695874 203.409141,144.747199 206.192841,141.69404 C207.05177,142.306079 208.230693,143.736514 209.067968,146.156529 C209.72239,148.048925 210.588537,151.92048 209.051126,156.568222 C208.966918,156.82617 208.877897,157.079427 208.791282,157.327994 C206.185623,157.832164 203.748382,158.967133 201.729778,160.634411 C200.998365,161.239414 200.906938,162.308723 201.527677,163.021596 C202.148416,163.734469 203.245535,163.823578 203.976948,163.218574 C204.920086,162.440042 205.983522,161.813933 207.119137,161.349628 C204.487013,166.747763 201.481964,169.242817 200.269358,169.017699 C199.511479,168.877001 198.743977,169.242817 198.395112,169.91817 C190.917376,184.318667 177.366986,196.034167 168.188234,196.034167 C159.007075,196.036512 145.456686,184.321012 137.978949,169.920515 Z" id="Path" fill="#0EC8C7" fill-rule="nonzero" opacity="0.2"></path>
                <path d="M120.172109,100.265911 C120.299973,94.7056355 123.127181,89.4152982 128.573227,84.5379441 C138.544226,75.6115093 145.754317,69.3129394 149.244522,66.2836272 L151.482137,81.2294645 C151.600529,82.0208233 152.277733,82.6183799 153.097008,82.6529875 C153.123054,82.6552946 153.1491,82.6552946 153.175147,82.6552946 C153.961272,82.6552946 154.652683,82.1292602 154.837375,81.3794305 L157.228899,71.7147018 C157.998449,71.6916301 159.099497,71.6685584 160.458641,71.6685584 C170.647482,71.6685584 195.853203,72.9259652 209.816391,84.5748588 C214.424219,88.4186014 216.818111,92.7883785 216.927032,97.56191 C217.11646,105.810037 210.522009,113.162983 208.502236,115.216363 C204.412966,114.57497 186.741732,111.988634 167.244888,111.988634 C159.269982,111.988634 151.617104,112.420075 145.077113,112.976103 C139.732885,106.193027 139.536354,101.749421 139.533986,101.638677 C139.524515,100.725038 138.762068,99.9867441 137.824401,99.9867441 C136.879631,99.9867441 136.114816,100.731959 136.114816,101.65252 C136.114816,101.860165 136.181116,106.423744 141.113339,113.336021 C139.799185,113.465222 138.548962,113.596731 137.365039,113.728239 C137.310579,113.589809 137.244279,113.453686 137.147197,113.326792 C124.706534,96.9620462 134.668062,88.974629 135.113217,88.6331681 C135.856721,88.070219 135.991688,87.0273789 135.416302,86.3006208 C134.838547,85.5715556 133.765913,85.4354326 133.017674,85.9983817 C132.877971,86.1045115 129.555883,88.6447039 128.137543,93.6212663 C125.987539,101.1634 129.700322,108.777056 133.559911,114.173523 C130.03182,114.611885 127.446132,114.999489 126.148553,115.20252 C124.519475,113.363707 120.003992,107.563485 120.172109,100.265911 Z" id="Path" fill="#0EC8C7" fill-rule="nonzero" opacity="0.2"></path>
                <g id="noun_User_2063433_000000" transform="translate(31.741935, 320.064516)" stroke="#002650" stroke-width="1.98387097">
                    <path d="M12.5645161,17.1935484 C16.5943511,17.1935484 19.8387097,13.3275434 19.8387097,8.57981803 C19.8387097,3.83209264 16.5943511,0 12.5645161,0 C8.53468121,0 5.29032258,3.86600496 5.29032258,8.61373036 C5.29032258,13.3614557 8.56883235,17.1935484 12.5645161,17.1935484 Z M12.5645161,0.542597188 C16.2869908,0.542597188 19.2922914,4.17121588 19.2922914,8.61373036 C19.2922914,13.0562448 16.2528396,16.6848635 12.5645161,16.6848635 C8.87619264,16.6848635 5.83674088,13.0562448 5.83674088,8.61373036 C5.83674088,4.17121588 8.8420415,0.542597188 12.5645161,0.542597188 Z" id="Shape" fill-rule="nonzero"></path>
                    <path d="M24.8696247,25.2357085 C24.5969274,23.8577002 23.4720508,22.868361 21.6654308,22.479692 C20.1655954,22.1263565 17.0636631,20.0063438 17.0636631,19.9710102 C16.9614016,19.9003432 16.7909657,19.9356767 16.6887042,20.0416773 C16.6887042,20.0416773 16.6887042,20.0416773 16.6887042,20.0416773 C16.6205299,20.1830115 16.654617,20.3243457 16.7568785,20.4303463 C16.8932272,20.536347 19.9610724,22.6210261 21.5290822,23.0096951 C22.4494357,23.2216964 24.0174455,23.8223667 24.2901428,25.3770427 C24.528753,27.0023858 24.5969274,28.6277289 24.528753,30.253072 C24.4946659,30.4650732 23.8129225,31.3484119 21.3927335,32.267084 C19.074806,33.1504227 14.8820843,33.82176 12.6664183,33.82176 C11.0302342,33.82176 6.01942036,33.1504227 3.70149289,32.267084 C1.2813039,31.3484119 0.599560525,30.5004068 0.531386188,30.2177384 C0.46321185,28.5923953 0.565473356,26.9317187 0.769996369,25.3063756 C1.04269372,23.7516996 2.64479065,23.1863629 3.53105704,22.9390281 C5.09906681,22.5503591 8.20099917,20.4656799 8.30326067,20.3596792 C8.43960935,20.2890122 8.47369652,20.1123444 8.37143501,19.9710102 C8.30326067,19.8296761 8.13282483,19.7943425 7.99647616,19.9003432 C7.96238899,19.9356767 4.86045663,22.0556894 3.39470837,22.4090249 C1.65626276,22.868361 0.531386188,23.8577002 0.292776006,25.2357085 C0.0541658244,26.5077161 -0.0821828508,29.8290694 0.0541658244,30.3590726 C0.1905145,30.8890758 1.17904239,31.878415 3.56514421,32.7970872 C5.91715886,33.7157594 11.0643213,34.3870968 12.7005055,34.3870968 C14.9502586,34.3870968 19.2111547,33.7157594 21.5972565,32.7970872 C23.9833583,31.878415 24.9377991,30.9597429 25.0741477,30.3590726 C25.2104964,29.8290694 25.0741477,26.5077161 24.8696247,25.2357085 Z" id="Path"></path>
                </g>
            </g>
        </g>
    </g>
</svg>