<?xml version="1.0" encoding="UTF-8"?>
<svg width="168px" height="168px" viewBox="0 0 168 168" version="1.1" xmlns="http://www.w3.org/2000/svg" xmlns:xlink="http://www.w3.org/1999/xlink">
    <!-- Generator: sketchtool 57.1 (101010) - https://sketch.com -->
    <title>94B00D87-D781-4261-B6F9-34363083A737</title>
    <desc>Created with sketchtool.</desc>
    <defs>
        <circle id="path-1" cx="80" cy="80" r="80"></circle>
        <filter x="-4.4%" y="-3.1%" width="108.8%" height="108.8%" filterUnits="objectBoundingBox" id="filter-2">
            <feOffset dx="0" dy="2" in="SourceAlpha" result="shadowOffsetOuter1"></feOffset>
            <feGaussianBlur stdDeviation="2" in="shadowOffsetOuter1" result="shadowBlurOuter1"></feGaussianBlur>
            <feColorMatrix values="0 0 0 0 0   0 0 0 0 0   0 0 0 0 0  0 0 0 0.1 0" type="matrix" in="shadowBlurOuter1"></feColorMatrix>
        </filter>
    </defs>
    <g id="web" stroke="none" stroke-width="1" fill="none" fill-rule="evenodd">
        <g id="12-download" transform="translate(-315.000000, -134.000000)">
            <g id="Group-5" transform="translate(319.000000, 136.000000)">
                <g id="Picto_Signatur">
                    <g id="Combined-Shape" fill-rule="nonzero">
                        <use fill="black" fill-opacity="1" filter="url(#filter-2)" xlink:href="#path-1"></use>
                        <use fill="#FFFFFF" xlink:href="#path-1"></use>
                    </g>
                    <g id="noun_contract_64135-(1)" transform="translate(48.387097, 45.806452)">
                        <g id="Group">
                            <g id="Paper">
                                <g id="Group">
                                    <rect id="Rectangle" fill="#0EC8C7" fill-rule="nonzero" opacity="0.2" x="2.58064516" y="3.22580645" width="61.2903226" height="78.7096774" rx="2.58064516"></rect>
                                    <path d="M58.6943435,79.3548387 L2.72100611,79.3548387 C1.45220743,79.3548387 0.420865485,78.3276344 0.420865485,77.0658925 L0.420865485,2.28894624 C0.420865485,1.0272043 1.45220743,0 2.72100611,0 L58.6952296,0 C59.9640282,0 60.9953702,1.0272043 60.9953702,2.28894624 L60.9953702,25.9269892 C60.9953702,26.3484516 60.6524756,26.6896774 60.228952,26.6896774 C59.8054284,26.6896774 59.4625338,26.3484516 59.4625338,25.9269892 L59.4625338,2.28894624 C59.4625338,1.86836559 59.1187531,1.52625806 58.6961156,1.52625806 L2.72100611,1.52625806 C2.29836856,1.52625806 1.95458791,1.86836559 1.95458791,2.28894624 L1.95458791,77.0658925 C1.95458791,77.4864731 2.29836856,77.8285806 2.72100611,77.8285806 L58.6952296,77.8285806 C59.1178671,77.8285806 59.4616478,77.4864731 59.4616478,77.0658925 L59.4616478,44.2711828 C59.4616478,43.8497204 59.8045424,43.5084946 60.228066,43.5084946 C60.6515895,43.5084946 60.9944842,43.8497204 60.9944842,44.2711828 L60.9944842,77.0658925 C60.9953702,78.3276344 59.9631422,79.3548387 58.6943435,79.3548387 Z" id="Path" fill="#002650" fill-rule="nonzero"></path>
                                    <g transform="translate(8.444572, 11.462366)" fill="#002650" id="Path">
                                        <path d="M21.7025365,1.36967742 L0.999498811,1.36967742 C0.575975229,1.36967742 0.233080613,1.081033 0.233080613,0.724516129 C0.233080613,0.367999254 0.575975229,0.0793548387 0.999498811,0.0793548387 L21.7025365,0.0793548387 C22.1260601,0.0793548387 22.4689547,0.367999254 22.4689547,0.724516129 C22.4689547,1.081033 22.1260601,1.36967742 21.7025365,1.36967742 Z"></path>
                                        <path d="M31.4641081,12.8144086 L0.794089678,12.8144086 C0.370566096,12.8144086 0.0276714796,12.5257642 0.0276714796,12.1692473 C0.0276714796,11.8127304 0.370566096,11.524086 0.794089678,11.524086 L31.4649941,11.524086 C31.8885177,11.524086 32.2314123,11.8127304 32.2314123,12.1692473 C32.2314123,12.5257642 31.8885177,12.8144086 31.4641081,12.8144086 Z"></path>
                                        <path d="M35.2979712,16.6296129 L0.794089678,16.6296129 C0.370566096,16.6296129 0.0276714796,16.3409685 0.0276714796,15.9844516 C0.0276714796,15.6279347 0.370566096,15.3392903 0.794089678,15.3392903 L35.2988572,15.3392903 C35.7223808,15.3392903 36.0652754,15.6279347 36.0652754,15.9844516 C36.0652754,16.3409685 35.7223808,16.6296129 35.2979712,16.6296129 Z"></path>
                                        <path d="M39.1318342,20.4448172 L0.793203646,20.4448172 C0.369680063,20.4448172 0.026785447,20.1561728 0.026785447,19.7996559 C0.026785447,19.443139 0.369680063,19.1544946 0.793203646,19.1544946 L39.1318342,19.1544946 C39.5553578,19.1544946 39.8982541,19.443139 39.8982541,19.7996559 C39.8991385,20.1561728 39.5562438,20.4448172 39.1318342,20.4448172 Z"></path>
                                        <path d="M42.9656973,24.2600215 L0.794089678,24.2600215 C0.370566096,24.2600215 0.0276714796,23.9713771 0.0276714796,23.6148602 C0.0276714796,23.2583433 0.370566096,22.9696989 0.794089678,22.9696989 L42.9665833,22.9696989 C43.3901069,22.9696989 43.7330015,23.2583433 43.7330015,23.6148602 C43.7330015,23.9713771 43.3901069,24.2600215 42.9656973,24.2600215 Z"></path>
                                        <path d="M44.4994197,28.0752258 L0.794089678,28.0752258 C0.370566096,28.0752258 0.0276714796,27.7865814 0.0276714796,27.4300645 C0.0276714796,27.0735476 0.370566096,26.7849032 0.794089678,26.7849032 L44.4994197,26.7849032 C44.9229433,26.7849032 45.2658379,27.0735476 45.2658379,27.4300645 C45.2658379,27.7865814 44.9229433,28.0752258 44.4994197,28.0752258 Z"></path>
                                        <path d="M44.4994197,31.8904301 L0.794089678,31.8904301 C0.370566096,31.8904301 0.0276714796,31.6017857 0.0276714796,31.2452688 C0.0276714796,30.8887519 0.370566096,30.6001075 0.794089678,30.6001075 L44.4994197,30.6001075 C44.9229433,30.6001075 45.2658379,30.8887519 45.2658379,31.2452688 C45.2658379,31.6017857 44.9229433,31.8904301 44.4994197,31.8904301 Z"></path>
                                        <path d="M44.4994197,35.7056344 L0.794089678,35.7056344 C0.370566096,35.7056344 0.0276714796,35.41699 0.0276714796,35.0604731 C0.0276714796,34.7039562 0.370566096,34.4153118 0.794089678,34.4153118 L44.4994197,34.4153118 C44.9229433,34.4153118 45.2658379,34.7039562 45.2658379,35.0604731 C45.2658379,35.41699 44.9229433,35.7056344 44.4994197,35.7056344 Z"></path>
                                        <path d="M44.4994197,39.5208387 L0.794089678,39.5208387 C0.370566096,39.5208387 0.0276714796,39.2321943 0.0276714796,38.8756774 C0.0276714796,38.5191605 0.370566096,38.2305161 0.794089678,38.2305161 L44.4994197,38.2305161 C44.9229433,38.2305161 45.2658379,38.5191605 45.2658379,38.8756774 C45.2658379,39.2321943 44.9229433,39.5208387 44.4994197,39.5208387 Z"></path>
                                        <path d="M32.9978305,43.336043 L0.794089678,43.336043 C0.370566096,43.336043 0.0276714796,43.0473986 0.0276714796,42.6908817 C0.0276714796,42.3343648 0.370566096,42.0457204 0.794089678,42.0457204 L32.9987166,42.0457204 C33.4222402,42.0457204 33.7651348,42.3343648 33.7651348,42.6908817 C33.7651348,43.0473986 33.4222402,43.336043 32.9978305,43.336043 Z"></path>
                                    </g>
                                </g>
                                <circle id="Oval" fill="#F09648" fill-rule="nonzero" cx="49.0322581" cy="67.0967742" r="6.4516129"></circle>
                                <path d="M47.1936404,71.0887097 C43.7407713,71.0887097 40.931162,68.2927742 40.931162,64.8567097 C40.931162,61.4206452 43.7407713,58.6247097 47.1936404,58.6247097 C50.6465094,58.6247097 53.4561188,61.4206452 53.4561188,64.8567097 C53.4561188,68.2927742 50.6456234,71.0887097 47.1936404,71.0887097 Z" id="Shape" stroke="#002650" stroke-width="1.29032258" fill-rule="nonzero"></path>
                            </g>
                        </g>
                    </g>
                </g>
            </g>
        </g>
    </g>
</svg>