<?xml version="1.0" encoding="UTF-8"?>
<svg width="112px" height="41px" viewBox="0 0 112 41" version="1.1" xmlns="http://www.w3.org/2000/svg" xmlns:xlink="http://www.w3.org/1999/xlink">
    <!-- Generator: sketchtool 57.1 (101010) - https://sketch.com -->
    <title>435B7FE1-89A1-449A-8C12-52965FB3D8A5</title>
    <desc>Created with sketchtool.</desc>
    <g id="web" stroke="none" stroke-width="1" fill="none" fill-rule="evenodd">
        <g id="2-loading" transform="translate(-665.000000, -465.000000)" fill="#FFFFFF">
            <g id="Group-2" transform="translate(492.000000, 184.000000)">
                <g id="Group" transform="translate(104.000000, 177.000000)">
                    <g id="Group-Copy" transform="translate(69.000000, 104.000000)">
                        <path d="M11.0938002,4 L11.0938002,11.1677478 L15.580469,11.1677478 L15.580469,16.712197 L11.0938002,16.712197 L11.0938002,31.6151069 C11.0938002,32.7506406 11.3070993,33.5619374 11.7349823,34.0489975 C12.1619017,34.5357051 12.737231,34.7788827 13.4603277,34.7788827 C13.8387408,34.7788827 14.1631866,34.7566795 14.4343077,34.7112159 C14.7051076,34.6664571 15.0218439,34.5896271 15.3832316,34.4817831 L16,40.1887031 C15.2762608,40.459018 14.5695471,40.6620184 13.8792162,40.797352 C13.1888853,40.9323332 12.4410536,41 11.6360424,41 C9.1541921,41 7.24381625,40.2521408 5.90459364,38.7546602 C4.56472856,37.2585893 3.89527787,34.8874315 3.89527787,31.6415393 L3.89527787,16.712197 L0,16.712197 L0,11.1677478 L3.89527787,11.1677478 L3.89527787,4 L11.0938002,4" id="Fill-30"></path>
                        <path d="M21.3333333,41 L28.3333333,41 L28.3333333,12.5631186 L21.3333333,12.5631186 L21.3333333,41 Z M21.3333333,5.75587 L28.3333333,5.75587 L28.3333333,0 L21.3333333,0 L21.3333333,5.75587 Z" id="Fill-32"></path>
                        <path d="M43.9611494,11.8153042 C43.9611494,12.5616378 44.1504598,13.3293436 44.5297701,14.1194395 C44.9090805,14.9091961 45.4777011,15.7813886 46.2370115,16.7356779 L48.5125287,15.2776135 C49.5004598,14.653068 50.1670115,14.0112211 50.5104598,13.3510551 C50.8552874,12.6919069 51.0263218,11.9713558 51.0263218,11.1904194 C51.0263218,10.322637 50.7045977,9.5501818 50.0614943,8.8730537 C49.4170115,8.1966041 48.5745977,7.85837929 47.5332184,7.85837929 C46.385977,7.85837929 45.5042529,8.23561699 44.8870115,8.99077086 C44.2694253,9.7455855 43.9611494,10.6869835 43.9611494,11.8153042 Z M46.6604598,35.14196 C47.5949425,35.14196 48.5297701,35.0252605 49.4652874,34.7915224 C50.4001149,34.5577843 51.3004598,34.2073468 52.1645977,33.7398706 L44.2256322,24.7024495 L43.7225287,25.0399958 C42.8232184,25.8708008 42.2097701,26.6805727 41.883908,27.4679546 C41.5566667,28.256015 41.393908,29.0478071 41.393908,29.8443486 C41.393908,31.3851881 41.8790805,32.6532767 42.8494253,33.6486143 C43.8197701,34.6446304 45.0897701,35.14196 46.6604598,35.14196 Z M33.6666667,30.2477079 C33.6666667,28.20004 34.2397701,26.4332649 35.3866667,24.9497573 C36.5335632,23.4655712 38.2801149,21.9165898 40.6263218,20.3024739 C39.4266667,18.7059985 38.5314943,17.2479341 37.9404598,15.9282806 C37.3490805,14.6103234 37.0535632,13.2645483 37.0535632,11.8936692 C37.0535632,8.89103356 38.0063218,6.49089264 39.9121839,4.69494268 C41.8170115,2.89865347 44.3663218,2 47.5597701,2 C50.3649425,2 52.6452874,2.85556967 54.4004598,4.56501279 C56.1556322,6.27411666 57.0342529,8.3441746 57.0342529,10.7741689 C57.0342529,12.4751309 56.6011494,14.0281832 55.7366667,15.4340043 C54.8725287,16.8401646 53.6904598,18.0722935 52.1914943,19.1310694 L49.7301149,20.8493328 L57.0342529,29.232355 C57.6690805,28.1912197 58.1632184,27.0625598 58.5163218,25.8477323 C58.8683908,24.633244 59.0456322,23.3485326 59.0456322,21.9949549 L64.8142529,21.9949549 C64.8142529,24.3896679 64.5132184,26.5940659 63.913908,28.6071311 C63.3142529,30.6208747 62.3966667,32.4086829 61.1621839,33.9705555 L66.6666667,40.3228719 L66.6132184,40.453141 L58.0394253,40.453141 L56.0014943,38.1361145 C54.5025287,39.090743 52.9583908,39.8065448 51.3711494,40.2841983 C49.7835632,40.7611733 48.0804598,41 46.2635632,41 C42.4166667,41 39.3563218,40.0066979 37.0804598,38.0190759 C34.8045977,36.0321324 33.6666667,33.4413371 33.6666667,30.2477079 L33.6666667,30.2477079 Z" id="Fill-33"></path>
                        <path d="M79.0017424,12.5263687 L79.3125195,16.2891333 C80.2071398,14.9209176 81.3317284,13.8644082 82.684265,13.1182334 C84.036465,12.3730874 85.5994411,12 87.3738668,12 C89.1658011,12 90.6981372,12.4039494 91.9732321,13.2101336 C93.248327,14.0176895 94.2133183,15.2367388 94.8675326,16.8683103 C95.729156,15.3416696 96.8476839,14.1490245 98.2271568,13.2890032 C99.6042728,12.4296677 101.224488,12 103.08511,12 C105.840689,12 108.015455,12.96941 109.609407,14.907887 C111.20235,16.846021 112,19.7984865 112,23.7628828 L112,41 L104.454145,41 L104.454145,23.6970439 C104.454145,21.53396 104.109024,20.0309803 103.420467,19.1870758 C102.731909,18.3435142 101.706984,17.9210477 100.346367,17.9210477 C99.277334,17.9210477 98.351737,18.1624571 97.5682287,18.6463048 C96.7837103,19.1298096 96.1591259,19.8026014 95.6944755,20.6639943 C95.6944755,20.9983327 95.7028931,21.2836349 95.7207384,21.5216152 C95.7372368,21.7585669 95.7456544,22.0006622 95.7456544,22.2468724 L95.7456544,41 L88.2270726,41 L88.2270726,23.6970439 C88.2270726,21.5871113 87.8822886,20.0964763 87.1937306,19.2265106 C86.5038258,18.356202 85.4704838,17.9210477 84.092021,17.9210477 C83.0765242,17.9210477 82.1839241,18.1189074 81.4182611,18.5149698 C80.651588,18.9100035 80.018586,19.468263 79.5185818,20.1894052 L79.5185818,41 L72,41 L72,12.5263687 L79.0017424,12.5263687" id="Fill-34"></path>
                    </g>
                </g>
            </g>
        </g>
    </g>
</svg>